# xmcd CD database file
#
# Track frame offsets:
#	150
#	16581
#	31740
#	52860
#	73316
#	89790
#	103708
#	119100
#	135245
#	147818
#	163957
#	182531
#	196272
#	214901
#
# Disc length: 3099 seconds
#
# Revision: 2
# Processed by: cddbd v1.5.2PL0 Copyright (c) Steve Scherf et al.
# Submitted via: CDex 1.51
#
DISCID=c60c190e
DTITLE=Xirú Missioneiro - Pampa Brasino CD 1
DYEAR=2002
DGENRE=Gaúcha
TTITLE0=Chupando o beiço
TTITLE1=Loira de farmácia
TTITLE2=Corpo esgualepado
TTITLE3=Descascando a pau
TTITLE4=Tchu Tchuquinha
TTITLE5=Bailongo
TTITLE6=Forrobodó
TTITLE7=Marca do sul
TTITLE8=Anjo de pele escura
TTITLE9=De pura cepa
TTITLE10=Da marca missioneira
TTITLE11=Domador louco
TTITLE12=Meninos sem nome
TTITLE13=Louca pagodeira
EXTD=YEAR: 2002
EXTT0=
EXTT1=
EXTT2=
EXTT3=
EXTT4=
EXTT5=
EXTT6=
EXTT7=
EXTT8=
EXTT9=
EXTT10=
EXTT11=
EXTT12=
EXTT13=
PLAYORDER=
